<svg width="24" height="24" viewBox="0 0 24 24" fill="none" xmlns="http://www.w3.org/2000/svg">
<g clip-path="url(#clip0_2198_266)">
<path d="M14.62 2.6619C14.8098 2.715 14.9873 2.80499 15.1423 2.92673C15.2973 3.04846 15.4268 3.19956 15.5234 3.37137C15.62 3.54318 15.6817 3.73234 15.7052 3.92804C15.7286 4.12374 15.7133 4.32214 15.66 4.5119L11.229 20.2989C11.1216 20.682 10.8664 21.0067 10.5195 21.2017C10.1727 21.3966 9.76259 21.4458 9.37948 21.3384C8.99638 21.231 8.67163 20.9758 8.47669 20.6289C8.28174 20.2821 8.23257 19.872 8.33998 19.4889L12.771 3.6999C12.8242 3.51018 12.9143 3.3328 13.036 3.1779C13.1578 3.023 13.3089 2.89361 13.4807 2.79713C13.6525 2.70064 13.8417 2.63895 14.0373 2.61557C14.233 2.5922 14.4313 2.6076 14.621 2.6609L14.62 2.6619ZM7.55998 6.6969C7.84088 6.97815 7.99866 7.35939 7.99866 7.7569C7.99866 8.1544 7.84088 8.53565 7.55998 8.8169L4.37998 11.9999L7.56198 15.1819C7.84324 15.4633 8.0012 15.8449 8.00111 16.2427C8.00101 16.6406 7.84288 17.0221 7.56148 17.3034C7.28009 17.5847 6.89849 17.7426 6.50063 17.7425C6.10277 17.7424 5.72124 17.5843 5.43998 17.3029L1.19698 13.0599C0.91608 12.7786 0.758301 12.3974 0.758301 11.9999C0.758301 11.6024 0.91608 11.2211 1.19698 10.9399L5.43898 6.6969C5.57828 6.55751 5.74368 6.44693 5.92573 6.37149C6.10778 6.29605 6.30292 6.25722 6.49998 6.25722C6.69704 6.25722 6.89218 6.29605 7.07423 6.37149C7.25628 6.44693 7.42068 6.55751 7.55998 6.6969ZM16.44 8.8169C16.2926 8.67957 16.1744 8.51397 16.0924 8.32997C16.0104 8.14597 15.9664 7.94735 15.9628 7.74594C15.9592 7.54454 15.9963 7.34448 16.0717 7.1577C16.1472 6.97092 16.2595 6.80126 16.4019 6.65882C16.5443 6.51638 16.714 6.40409 16.9008 6.32865C17.0876 6.25321 17.2876 6.21616 17.489 6.21971C17.6904 6.22327 17.8891 6.26735 18.0731 6.34933C18.2571 6.43132 18.4227 6.54952 18.56 6.6969L22.803 10.9389C23.0842 11.2202 23.2422 11.6017 23.2422 11.9994C23.2422 12.3971 23.0842 12.7786 22.803 13.0599L18.561 17.3029C18.4217 17.4422 18.2564 17.5528 18.0744 17.6282C17.8924 17.7036 17.6973 17.7425 17.5003 17.7425C17.3033 17.7426 17.1083 17.7038 16.9262 17.6285C16.7442 17.5531 16.5788 17.4427 16.4395 17.3034C16.3001 17.1641 16.1896 16.9988 16.1142 16.8168C16.0387 16.6348 15.9999 16.4397 15.9999 16.2427C15.9998 16.0457 16.0386 15.8507 16.1139 15.6686C16.1893 15.4866 16.2997 15.3212 16.439 15.1819L19.621 11.9999L16.44 8.8169Z" fill="black"/>
</g>
<defs>
<clipPath id="clip0_2198_266">
<rect width="24" height="24" fill="white"/>
</clipPath>
</defs>
</svg>
