<svg width="44" height="43" viewBox="0 0 44 43" fill="none" xmlns="http://www.w3.org/2000/svg">
<path d="M22.0006 0.333252C19.1553 0.333252 16.3379 0.893677 13.7092 1.98253C11.0805 3.07138 8.69194 4.66734 6.68 6.67927C2.61672 10.7426 0.333984 16.2536 0.333984 21.9999C0.333984 31.5766 6.55232 39.7016 15.154 42.5833C16.2373 42.7566 16.584 42.0849 16.584 41.4999V37.8383C10.5823 39.1383 9.30398 34.9349 9.30398 34.9349C8.30732 32.4216 6.89898 31.7499 6.89898 31.7499C4.92732 30.4066 7.05065 30.4499 7.05065 30.4499C9.21732 30.6016 10.3657 32.6816 10.3657 32.6816C12.2507 35.9749 15.4356 34.9999 16.6707 34.4799C16.8657 33.0716 17.429 32.1183 18.0357 31.5766C13.2256 31.0349 8.17732 29.1716 8.17732 20.9166C8.17732 18.5116 9.00065 16.5833 10.409 15.0449C10.1923 14.5033 9.43398 12.2499 10.6257 9.32492C10.6257 9.32492 12.4457 8.73992 16.584 11.5349C18.2957 11.0583 20.159 10.8199 22.0006 10.8199C23.8423 10.8199 25.7056 11.0583 27.4173 11.5349C31.5556 8.73992 33.3756 9.32492 33.3756 9.32492C34.5673 12.2499 33.809 14.5033 33.5923 15.0449C35.0006 16.5833 35.824 18.5116 35.824 20.9166C35.824 29.1933 30.754 31.0133 25.9223 31.5549C26.7023 32.2266 27.4173 33.5483 27.4173 35.5633V41.4999C27.4173 42.0849 27.764 42.7783 28.869 42.5833C37.4706 39.6799 43.6673 31.5766 43.6673 21.9999C43.6673 19.1546 43.1069 16.3372 42.018 13.7084C40.9292 11.0797 39.3332 8.69121 37.3213 6.67927C35.3094 4.66734 32.9208 3.07138 30.2921 1.98253C27.6634 0.893677 24.846 0.333252 22.0006 0.333252Z" fill="black"/>
</svg>
