<?xml version="1.0" encoding="UTF-8" standalone="no"?>
<svg
   width="48"
   height="46.837246"
   viewBox="0 0 48 46.837246"
   fill="none"
   version="1.1"
   id="svg310"
   sodipodi:docname="github.svg"
   inkscape:version="1.2.2 (732a01da63, 2022-12-09)"
   xmlns:inkscape="http://www.inkscape.org/namespaces/inkscape"
   xmlns:sodipodi="http://sodipodi.sourceforge.net/DTD/sodipodi-0.dtd"
   xmlns="http://www.w3.org/2000/svg"
   xmlns:svg="http://www.w3.org/2000/svg">
  <defs
     id="defs314" />
  <sodipodi:namedview
     id="namedview312"
     pagecolor="#ffffff"
     bordercolor="#000000"
     borderopacity="0.25"
     inkscape:showpageshadow="2"
     inkscape:pageopacity="0.0"
     inkscape:pagecheckerboard="0"
     inkscape:deskcolor="#d1d1d1"
     showgrid="false"
     inkscape:zoom="16.888341"
     inkscape:cx="-3.1382597"
     inkscape:cy="25.076471"
     inkscape:window-width="2560"
     inkscape:window-height="1351"
     inkscape:window-x="-9"
     inkscape:window-y="-9"
     inkscape:window-maximized="1"
     inkscape:current-layer="svg310" />
  <path
     d="M 23.999953,0 C 20.848235,0 17.727422,0.62077871 14.81563,1.8268933 11.903838,3.0330045 9.2580473,4.8008379 7.0294359,7.0294381 2.5285701,11.530359 0,17.634854 0,23.999989 0,34.60803 6.8880057,43.608034 16.416024,46.800072 c 1.199964,0.191963 1.584001,-0.552074 1.584001,-1.200074 V 41.54407 C 11.351985,42.98407 9.936,38.327995 9.936,38.327995 8.8320065,35.54403 7.2719985,34.799993 7.2719985,34.799993 c -2.1839935,-1.487963 0.1680037,-1.44 0.1680037,-1.44 2.4000048,0.168037 3.6720568,2.472038 3.6720568,2.472038 2.088001,3.647964 5.615892,2.567964 6.984003,1.991963 0.216,-1.559963 0.839963,-2.615927 1.512,-3.215964 C 14.27995,34.007993 8.6880064,31.944029 8.6880064,22.800025 c 0,-2.664001 0.9119967,-4.799965 2.4720156,-6.504039 -0.240037,-0.599927 -1.080022,-3.096001 0.240037,-6.335981 0,0 2.016001,-0.6479998 6.599966,2.447979 1.896038,-0.527926 3.960002,-0.792 5.999928,-0.792 2.040038,0 4.104002,0.264074 6.00004,0.792 4.583965,-3.0959788 6.599966,-2.447979 6.599966,-2.447979 1.320037,3.23998 0.480074,5.736054 0.240037,6.335981 1.559963,1.704074 2.472037,3.840038 2.472037,6.504039 0,9.168041 -5.616002,11.184042 -10.968041,11.783968 0.864,0.744037 1.656001,2.208075 1.656001,4.440076 v 6.575929 c 0,0.648 0.384037,1.416074 1.608037,1.200074 C 41.13596,43.583997 48,34.60803 48,23.999989 48,20.848271 47.379249,17.727457 46.173082,14.815554 44.967026,11.903763 43.199149,9.2580495 40.970582,7.0294381 38.742015,4.8008379 36.09618,3.0330045 33.184388,1.8268933 30.272596,0.62077871 27.151782,0 23.999953,0 Z"
     fill="#000000"
     id="path308"
     style="stroke-width:1.10769" />
</svg>
