<svg width="44" height="36" viewBox="0 0 44 36" fill="none" xmlns="http://www.w3.org/2000/svg">
<path d="M4.66732 35.3334C3.47565 35.3334 2.45587 34.9095 1.60798 34.0616C0.760096 33.2137 0.335429 32.1932 0.333984 31.0001V5.00008C0.333984 3.80841 0.758651 2.78864 1.60798 1.94075C2.45732 1.09286 3.4771 0.668192 4.66732 0.666748H39.334C40.5257 0.666748 41.5461 1.09141 42.3955 1.94075C43.2448 2.79008 43.6688 3.80986 43.6673 5.00008V31.0001C43.6673 32.1917 43.2434 33.2122 42.3955 34.0616C41.5476 34.9109 40.5271 35.3349 39.334 35.3334H4.66732ZM39.334 9.33342L23.1381 19.4626C22.9576 19.5709 22.7684 19.6525 22.5705 19.7074C22.3726 19.7623 22.1826 19.789 22.0006 19.7876C21.8186 19.7861 21.6294 19.7594 21.433 19.7074C21.2365 19.6554 21.0466 19.5738 20.8631 19.4626L4.66732 9.33342V31.0001H39.334V9.33342ZM22.0006 15.8334L39.334 5.00008H4.66732L22.0006 15.8334ZM4.66732 9.87508V6.67925V6.73342V6.70742V9.87508Z" fill="black"/>
</svg>
