<?xml version="1.0" encoding="UTF-8" standalone="no"?>
<svg
   width="48"
   height="48"
   viewBox="0 0 48 48.000001"
   fill="none"
   version="1.1"
   id="svg4"
   sodipodi:docname="gmail.svg"
   inkscape:version="1.2.2 (732a01da63, 2022-12-09)"
   xmlns:inkscape="http://www.inkscape.org/namespaces/inkscape"
   xmlns:sodipodi="http://sodipodi.sourceforge.net/DTD/sodipodi-0.dtd"
   xmlns="http://www.w3.org/2000/svg"
   xmlns:svg="http://www.w3.org/2000/svg">
  <defs
     id="defs8" />
  <sodipodi:namedview
     id="namedview6"
     pagecolor="#ffffff"
     bordercolor="#000000"
     borderopacity="0.25"
     inkscape:showpageshadow="2"
     inkscape:pageopacity="0.0"
     inkscape:pagecheckerboard="0"
     inkscape:deskcolor="#d1d1d1"
     showgrid="false"
     inkscape:zoom="14.263889"
     inkscape:cx="11.252191"
     inkscape:cy="20.856864"
     inkscape:window-width="2560"
     inkscape:window-height="1351"
     inkscape:window-x="-9"
     inkscape:window-y="-9"
     inkscape:window-maximized="1"
     inkscape:current-layer="svg4" />
  <path
     d="m 4.8000044,43.199996 c -1.3200041,0 -2.4496069,-0.469551 -3.3888084,-1.408764 C 0.47200113,40.852019 0.00160062,39.721619 0,38.400031 V 9.5999998 C 0,8.2799957 0.47040051,7.150404 1.411196,6.2112025 2.3520037,5.2720009 3.4816065,4.8015993 4.8000044,4.7999998 H 43.200031 c 1.320037,0 2.450327,0.470395 3.391201,1.4112027 0.940763,0.9407965 1.410425,2.0703994 1.408764,3.3887973 V 38.400031 c 0,1.319927 -0.469551,2.450327 -1.408764,3.391201 -0.939213,0.940763 -2.069613,1.410425 -3.391201,1.408764 z M 43.200031,14.400009 25.259952,25.620027 c -0.199939,0.119963 -0.409514,0.210351 -0.628727,0.271163 -0.219212,0.06081 -0.429674,0.09039 -0.631274,0.08884 -0.2016,-0.0017 -0.411175,-0.03124 -0.628726,-0.08884 -0.217662,-0.0576 -0.428013,-0.147987 -0.631274,-0.271163 L 4.8000044,14.400009 V 38.400031 H 43.200031 Z m -19.20008,7.19998 19.20008,-11.9999892 H 4.8000044 Z M 4.8000044,15.000002 v -3.539998 0.06 -0.0288 z"
     fill="#000000"
     id="path2"
     style="stroke-width:1.10769" />
</svg>
