<?xml version="1.0" encoding="UTF-8" standalone="no"?>
<svg
   width="48"
   height="48"
   viewBox="0 0 48 48"
   fill="none"
   version="1.1"
   id="svg185"
   sodipodi:docname="linkedin.svg"
   inkscape:version="1.2.2 (732a01da63, 2022-12-09)"
   xmlns:inkscape="http://www.inkscape.org/namespaces/inkscape"
   xmlns:sodipodi="http://sodipodi.sourceforge.net/DTD/sodipodi-0.dtd"
   xmlns="http://www.w3.org/2000/svg"
   xmlns:svg="http://www.w3.org/2000/svg">
  <defs
     id="defs189" />
  <sodipodi:namedview
     id="namedview187"
     pagecolor="#ffffff"
     bordercolor="#000000"
     borderopacity="0.25"
     inkscape:showpageshadow="2"
     inkscape:pageopacity="0.0"
     inkscape:pagecheckerboard="0"
     inkscape:deskcolor="#d1d1d1"
     showgrid="false"
     inkscape:zoom="25.675"
     inkscape:cx="12.502434"
     inkscape:cy="19.493671"
     inkscape:window-width="2560"
     inkscape:window-height="1351"
     inkscape:window-x="-9"
     inkscape:window-y="-9"
     inkscape:window-maximized="1"
     inkscape:current-layer="svg185" />
  <path
     d="m 42.666708,0 c 1.4144,0 2.770954,0.5619028 3.7712,1.5620923 C 47.438154,2.5622892 48,3.9188431 48,5.3333292 V 42.666708 c 0,1.4144 -0.561846,2.770954 -1.562092,3.7712 C 45.437662,47.438154 44.081108,48 42.666708,48 H 5.3333292 C 3.9188431,48 2.5622892,47.438154 1.5620923,46.437908 0.5619028,45.437662 0,44.081108 0,42.666708 V 5.3333292 C 0,3.9188431 0.5619028,2.5622892 1.5620923,1.5620923 2.5622892,0.5619028 3.9188431,0 5.3333292,0 Z M 41.333292,41.333292 V 27.2 c 0,-2.3056 -0.915815,-4.5168 -2.546215,-6.147077 C 37.1568,19.422523 34.9456,18.506708 32.64,18.506708 c -2.266708,0 -4.906708,1.386584 -6.186708,3.466584 v -2.96 h -7.44 v 22.32 h 7.44 V 28.186708 c 0,-2.053416 1.653416,-3.733416 3.706708,-3.733416 0.990154,0 1.939692,0.393354 2.639877,1.093539 0.700185,0.700061 1.093415,1.649723 1.093415,2.639877 V 41.333292 Z M 10.346671,14.826708 c 1.188172,0 2.327667,-0.472 3.167791,-1.312246 0.840246,-0.840124 1.312246,-1.979619 1.312246,-3.167791 0,-2.4800002 -2,-4.506671 -4.480037,-4.506671 C 9.1514215,5.84 8.0051323,6.3148062 7.1599754,7.1599754 6.3148062,8.0051323 5.84,9.1514215 5.84,10.346671 c 0,2.480037 2.0266708,4.480037 4.506671,4.480037 z m 3.706621,26.506584 v -22.32 H 6.6666708 v 22.32 z"
     fill="#000000"
     id="path183"
     style="stroke-width:1.23077" />
</svg>
