<svg width="40" height="40" viewBox="0 0 40 40" fill="none" xmlns="http://www.w3.org/2000/svg">
<path d="M35.1667 0.5C36.3159 0.5 37.4181 0.956546 38.2308 1.7692C39.0435 2.58186 39.5 3.68406 39.5 4.83333V35.1667C39.5 36.3159 39.0435 37.4181 38.2308 38.2308C37.4181 39.0435 36.3159 39.5 35.1667 39.5H4.83333C3.68406 39.5 2.58186 39.0435 1.7692 38.2308C0.956546 37.4181 0.5 36.3159 0.5 35.1667V4.83333C0.5 3.68406 0.956546 2.58186 1.7692 1.7692C2.58186 0.956546 3.68406 0.5 4.83333 0.5H35.1667ZM34.0833 34.0833V22.6C34.0833 20.7267 33.3392 18.9301 32.0145 17.6055C30.6899 16.2808 28.8933 15.5367 27.02 15.5367C25.1783 15.5367 23.0333 16.6633 21.9933 18.3533V15.9483H15.9483V34.0833H21.9933V23.4017C21.9933 21.7333 23.3367 20.3683 25.005 20.3683C25.8095 20.3683 26.581 20.6879 27.1499 21.2568C27.7188 21.8256 28.0383 22.5972 28.0383 23.4017V34.0833H34.0833ZM8.90667 12.5467C9.87206 12.5467 10.7979 12.1632 11.4805 11.4805C12.1632 10.7979 12.5467 9.87206 12.5467 8.90667C12.5467 6.89167 10.9217 5.245 8.90667 5.245C7.93553 5.245 7.00417 5.63078 6.31748 6.31748C5.63078 7.00417 5.245 7.93553 5.245 8.90667C5.245 10.9217 6.89167 12.5467 8.90667 12.5467ZM11.9183 34.0833V15.9483H5.91667V34.0833H11.9183Z" fill="black"/>
</svg>
